<?xml version="1.0" encoding="UTF-8" standalone="no"?>
<!-- Created with Inkscape (http://www.inkscape.org/) -->

<svg
   xmlns:dc="http://purl.org/dc/elements/1.1/"
   xmlns:cc="http://creativecommons.org/ns#"
   xmlns:rdf="http://www.w3.org/1999/02/22-rdf-syntax-ns#"
   xmlns:svg="http://www.w3.org/2000/svg"
   xmlns="http://www.w3.org/2000/svg"
   xmlns:sodipodi="http://sodipodi.sourceforge.net/DTD/sodipodi-0.dtd"
   xmlns:inkscape="http://www.inkscape.org/namespaces/inkscape"
   width="210mm"
   height="297mm"
   viewBox="0 0 210 297"
   version="1.1"
   id="svg8"
   inkscape:version="0.92.4 (5da689c313, 2019-01-14)"
   sodipodi:docname="drawing.svg">
  <defs
     id="defs2" />
  <sodipodi:namedview
     id="base"
     pagecolor="#ffffff"
     bordercolor="#666666"
     borderopacity="1.0"
     inkscape:pageopacity="0.0"
     inkscape:pageshadow="2"
     inkscape:zoom="0.35"
     inkscape:cx="-64.285714"
     inkscape:cy="560"
     inkscape:document-units="mm"
     inkscape:current-layer="layer1"
     showgrid="false"
     inkscape:snap-global="false"
     inkscape:window-width="1600"
     inkscape:window-height="837"
     inkscape:window-x="-8"
     inkscape:window-y="-8"
     inkscape:window-maximized="1" />
  <metadata
     id="metadata5">
    <rdf:RDF>
      <cc:Work
         rdf:about="">
        <dc:format>image/svg+xml</dc:format>
        <dc:type
           rdf:resource="http://purl.org/dc/dcmitype/StillImage" />
        <dc:title></dc:title>
      </cc:Work>
    </rdf:RDF>
  </metadata>
  <g
     inkscape:label="Layer 1"
     inkscape:groupmode="layer"
     id="layer1">
    <text
       xml:space="preserve"
       style="font-style:normal;font-weight:normal;font-size:22.57777786px;line-height:1.25;font-family:sans-serif;letter-spacing:0px;word-spacing:0px;fill:#000000;fill-opacity:1;stroke:none;stroke-width:0.26458332"
       x="121.40123"
       y="86.845238"
       id="text817"
       inkscape:export-xdpi="66"
       inkscape:export-ydpi="66"><tspan
         sodipodi:role="line"
         id="tspan815"
         x="121.40123"
         y="86.845238"
         style="font-style:normal;font-variant:normal;font-weight:normal;font-stretch:normal;line-height:0;font-family:Stencil;-inkscape-font-specification:Stencil;text-align:end;letter-spacing:0px;text-anchor:end;stroke-width:0.26458332"
         dx="0">ARBO</tspan><tspan
         sodipodi:role="line"
         x="121.40123"
         y="115.06746"
         style="font-style:normal;font-variant:normal;font-weight:normal;font-stretch:normal;line-height:0;font-family:Stencil;-inkscape-font-specification:Stencil;text-align:end;letter-spacing:0px;text-anchor:end;stroke-width:0.26458332"
         id="tspan819">LITO</tspan></text>
    <flowRoot
       xml:space="preserve"
       id="flowRoot821"
       style="font-style:normal;font-weight:normal;font-size:85.33333588px;line-height:1.25;font-family:sans-serif;letter-spacing:0px;word-spacing:0px;fill:#000000;fill-opacity:1;stroke:none"
       transform="scale(0.26458333)"><flowRegion
         id="flowRegion823"><rect
           id="rect825"
           width="194.28572"
           height="142.85715"
           x="134.28572"
           y="276.80539" /></flowRegion><flowPara
         id="flowPara827"></flowPara></flowRoot>    <path
       style="opacity:0.3;fill:#ffffff;fill-opacity:1;stroke:#ff5555;stroke-width:0.2;stroke-linejoin:round;stroke-miterlimit:4;stroke-dasharray:none;stroke-opacity:0"
       id="path829"
       d="m 58.673422,64.429036 c -0.143713,3.671035 -0.16579,7.345167 -0.178953,11.018533 -0.0044,3.975013 0.03382,7.950181 0.09081,11.924784 0.08585,2.025798 -0.03447,4.061214 0.11747,6.083083 0.244456,1.66996 0.476139,3.338782 0.601914,5.02235 0.09719,1.530404 0.103428,3.064484 0.109169,4.597344 -0.143496,1.5526 -0.47703,3.07316 -0.618116,4.6299 -0.235744,1.72996 -0.567635,3.44163 -0.745459,5.17968 -0.03937,1.72832 -0.567785,3.37316 -1.001924,5.02902 -0.370972,1.80317 -0.776478,3.60106 -1.080103,5.41748 -0.162047,1.96646 -0.523018,3.90478 -0.789239,5.85793 -0.246674,2.02193 -0.289142,4.0596 -0.312433,6.0939 0.121539,1.42311 -0.290724,2.97673 0.224904,4.34029 0,0 -9.794679,5.46244 -9.794679,5.46244 v 0 c -0.612871,-1.51977 -0.345655,-3.15009 -0.367475,-4.75775 0.03685,-2.07204 0.08475,-4.14743 0.282427,-6.21135 0.211293,-1.96856 0.642273,-3.90029 0.766622,-5.87796 0.237763,-1.85644 0.697251,-3.66873 1.01531,-5.5115 0.392239,-1.61117 0.990906,-3.19577 1.057171,-4.86544 0.150853,-1.74116 0.428353,-3.46185 0.775981,-5.17455 0.09992,-1.52633 0.216686,-3.05299 0.626531,-4.53386 -0.0019,-1.51245 -0.0011,-3.02569 -0.07097,-4.53688 -0.09681,-1.67822 -0.286805,-3.34598 -0.559043,-5.005217 -0.244642,-2.067507 -0.04388,-4.155041 -0.06338,-6.232657 0.05661,-4.005459 0.09517,-8.011467 0.09081,-12.017325 -0.01299,-3.612576 -0.03303,-7.226033 -0.178954,-10.836172 0,0 10.001607,-5.096073 10.001607,-5.096073 z"
       inkscape:connector-curvature="0" />
    <path
       style="opacity:0.3;fill:#ffffff;fill-opacity:1;stroke:#ff5555;stroke-width:0.2;stroke-linejoin:round;stroke-miterlimit:4;stroke-dasharray:none;stroke-opacity:0"
       id="path831"
       d="m 41.492196,208.63789 c 3.301952,-3.11667 7.040845,-5.74227 10.967593,-8.01121 13.218998,-7.63813 9.386776,-5.71695 18.257271,-9.79432 6.14522,-2.63542 12.543821,-4.77876 19.167901,-5.7832 2.254355,-0.3161 4.530172,-0.30487 6.79977,-0.25907 1.662229,0.22768 3.119543,0.78257 4.511639,1.71314 1.29678,1.1335 1.97474,2.82146 1.26672,4.49549 -0.20684,0.48904 -0.53297,0.91854 -0.79945,1.37781 -2.962451,3.52049 -6.893998,6.06347 -10.711676,8.56589 -3.649654,2.08342 -7.264857,4.22837 -10.948966,6.25024 -1.215355,0.66699 -2.546167,1.09782 -3.825041,1.63304 -2.511865,1.05122 -5.023335,2.09857 -7.562475,3.08227 -2.883752,1.23842 -5.929981,2.10437 -8.791678,3.3951 -1.043863,0.47083 -2.052164,1.01729 -3.089714,1.50187 -2.459876,1.38335 -5.139989,2.29965 -7.674329,3.51654 2.890517,-1.6449 5.773229,-3.3036 8.671554,-4.93471 0.129458,-0.0729 -0.905576,0.5578 -0.899236,0.64855 0.05318,0.76106 3.484824,3.40192 3.845602,3.69664 4.686086,3.66674 10.246439,5.55252 15.974012,6.83821 2.226641,0.4433 4.475162,0.70138 6.741882,0.58638 0,0 -8.935712,6.50281 -8.935712,6.50281 v 0 c -2.271506,-0.0779 -4.524734,-0.37439 -6.733537,-0.92779 -5.753142,-1.55366 -11.364717,-3.61738 -16.152892,-7.27241 -1.638429,-1.25558 -4.16529,-2.77343 -4.983506,-4.83546 -1.60737,-4.05084 36.751183,-4.26657 11.160315,-7.19735 2.559545,-1.08842 5.107578,-2.20203 7.587388,-3.46486 3.820594,-1.78859 7.792381,-3.1791 11.728865,-4.69073 2.563561,-1.02841 5.106858,-2.1008 7.641931,-3.1978 0.675921,-0.29249 1.349785,-0.58984 2.020311,-0.89449 0.610695,-0.27747 2.391682,-1.20777 1.823156,-0.85179 -2.55321,1.59864 -5.191421,3.05735 -7.787132,4.58602 3.79199,-2.41934 7.662749,-4.85088 10.804663,-8.10537 1.173482,-1.59109 2.126006,-2.75728 0.237601,-4.25276 -1.287851,-0.74372 -2.675247,-1.15365 -4.168182,-1.21864 -2.171089,-0.0437 -4.347589,-0.0329 -6.5024,0.278 -6.367571,1.00181 -12.535567,2.96862 -18.423451,5.5867 -1.584976,0.7496 -3.192957,3.04521 -4.754927,2.24878 -1.447168,-0.73788 2.807507,-1.64046 4.147727,-2.55838 1.273561,-0.87226 -2.657401,1.57363 -3.947499,2.42125 -1.872051,1.22996 -3.462456,2.44992 -5.135046,3.90553 -0.417018,0.36293 -0.801436,0.76169 -1.202156,1.14253 0,0 -10.326896,4.27755 -10.326896,4.27755 z"
       inkscape:connector-curvature="0" />
    <path
       style="fill:#000000;fill-opacity:1;fill-rule:nonzero;stroke:none;stroke-width:0.26458332"
       id="path835"
       d="m 58.720389,60.567408 c 0.427188,2.564138 0.779068,5.137764 1.343329,7.676009 0.439137,1.756066 0.682768,3.545118 0.800878,5.348529 0.04744,1.937522 0.05349,3.876585 0.04297,5.814702 -0.170093,2.316819 -0.463023,4.621358 -0.61881,6.939566 -0.115819,1.846657 -0.10832,3.697338 -0.146709,5.546318 -0.01998,2.413375 -0.02447,4.826825 -0.03926,7.240309 0.02756,2.564409 0.0058,5.128719 0.01228,7.693139 -0.03829,2.63153 0.0079,5.26301 0.01193,7.89452 0.01617,2.26708 -0.0039,4.53419 -2.12e-4,6.80127 0.0068,2.57641 -0.352538,5.13568 -0.534924,7.70319 -0.161602,1.49423 -0.402603,2.97797 -0.602683,4.46724 0,0 -9.981941,4.91605 -9.981941,4.91605 v 0 c 0.20637,-1.47878 0.458084,-2.95002 0.674336,-4.42734 0.202385,-2.53894 0.536516,-5.07624 0.560723,-7.62274 0.0037,-2.26703 -0.01635,-4.53407 -1.59e-4,-6.80109 0.0041,-2.63547 0.05022,-5.27093 0.01167,-7.90642 0.006,-2.56761 -0.01664,-5.1351 0.0077,-7.70271 -0.0177,-2.40202 -0.02997,-4.803905 -0.04096,-7.205933 -0.02191,-1.873364 0.02614,-3.74709 0.136178,-5.617474 0.149212,-2.295962 0.425087,-4.576649 0.63532,-6.867171 -0.0059,-1.912495 0.02394,-3.825843 -0.05718,-5.737309 -0.07711,-1.760948 -0.255561,-3.514183 -0.643173,-5.237242 -0.516461,-2.549552 -0.793594,-5.144323 -1.486019,-7.655608 0,0 9.914692,-5.259805 9.914692,-5.259805 z"
       inkscape:connector-curvature="0"
       inkscape:export-xdpi="66"
       inkscape:export-ydpi="66" />
    <path
       style="fill:#000000;fill-opacity:1;fill-rule:nonzero;stroke:none;stroke-width:0.26458332"
       id="path837"
       d="m 58.92125,129.67056 c 5.228804,0.18756 10.462347,0.15099 15.693546,0.14024 5.262903,-7.9e-4 10.520034,-0.34992 15.774749,-0.61937 3.496892,-0.1715 6.998938,-0.19248 10.499195,-0.23074 2.5143,-0.0211 5.02866,-0.0181 7.543,-0.0232 2.47505,-0.011 4.95009,0.0104 7.42504,0.0292 2.87438,0.153 5.72135,-0.23456 8.5732,-0.52199 1.40282,-0.12383 0.72538,-0.0208 2.03417,-0.29661 0,0 -8.89673,6.68988 -8.89673,6.68988 v 0 c -1.34334,0.16459 -0.66103,0.0934 -2.04714,0.21146 -2.85205,0.26097 -5.70193,0.49698 -8.57022,0.3882 -2.49943,0.0179 -4.99898,0.0388 -7.498483,0.0233 -2.493063,-0.009 -4.986158,-0.0133 -7.479231,-0.0141 -3.455607,0.002 -6.91079,0.05 -10.364121,0.18281 -5.218403,0.18252 -10.434423,0.5343 -15.657835,0.47628 -5.359955,-0.0111 -10.721845,-0.0416 -16.079605,0.14024 0,0 9.050465,-6.57555 9.050465,-6.57555 z"
       inkscape:connector-curvature="0"
       inkscape:export-xdpi="66"
       inkscape:export-ydpi="66" />
    <path
       style="fill:#000000;fill-opacity:1;fill-rule:nonzero;stroke:none;stroke-width:0.26458332"
       id="path839"
       d="m 62.618288,59.361392 c 3.798327,0.125143 7.599654,0.101261 11.399428,0.08731 3.096077,0.0021 6.182608,-0.157292 9.261297,0.208315 2.213282,0.300479 4.445781,0.395703 6.676321,0.452178 2.112336,0.03243 4.224878,0.04475 6.337435,0.05097 2.074077,-0.0026 4.148101,-0.01857 6.222161,-0.02747 1.59288,0.01892 3.15354,0.425564 4.73961,0.59568 1.89931,0.147548 3.80561,0.157332 5.70953,0.164227 1.71728,-0.0043 3.43453,0.0019 5.1518,-5.29e-4 1.81581,0.165494 3.52564,-0.358907 5.26669,-0.769604 2.08082,-0.537887 4.2169,-0.617323 6.35146,-0.68544 0,0 -8.94014,6.553324 -8.94014,6.553324 v 0 c -2.10875,0.111281 -4.20738,0.336743 -6.25473,0.879832 -1.79381,0.434385 -3.59197,0.69591 -5.44438,0.577485 -1.71935,0.0011 -3.43876,0.01609 -5.15802,-0.0096 -1.93665,-0.03053 -3.87602,-0.06859 -5.805566,-0.249322 -1.542224,-0.211457 -3.075448,-0.567126 -4.641723,-0.497729 -2.053312,-0.0063 -4.106611,-0.01773 -6.159936,-0.01897 -2.131298,0.0051 -4.263766,0.03317 -6.393794,-0.05754 -2.243249,-0.09964 -4.486434,-0.236739 -6.713842,-0.531432 -2.999396,-0.320601 -6.018186,-0.171894 -9.029707,-0.222178 -3.87993,-0.01439 -7.761161,-0.03414 -11.639762,0.08731 0,0 9.065868,-6.586739 9.065868,-6.586739 z"
       inkscape:connector-curvature="0"
       inkscape:export-xdpi="66"
       inkscape:export-ydpi="66" />
  </g>
</svg>
